<svg xmlns="http://www.w3.org/2000/svg" viewBox="0 0 512 512"><path d="M57.052 454.948a123.816 123.816 0 0 0 175.104 0l222.24-222.24A123.817 123.817 0 0 0 279.292 57.604l-222.24 222.24a123.816 123.816 0 0 0 0 175.104z" style="fill:#14a142"/><path d="m279.292 57.604-222.24 222.24a124.71 124.71 0 0 0-8.662 9.607C-8.285 359.299 88.7 456.285 158.55 399.61a124.71 124.71 0 0 0 9.606-8.662l222.24-222.24a124.711 124.711 0 0 0 8.662-9.607c56.674-69.848-40.31-166.833-110.16-110.159a124.711 124.711 0 0 0-9.606 8.662z" style="fill:#66ce83"/><path d="M256 298.667a21.264 21.264 0 0 1-15.083-6.25l-64-64a21.331 21.331 0 0 1 30.166-30.167l64 64A21.333 21.333 0 0 1 256 298.667z" style="fill:#14a142"/><path d="M454.396 57.604a123.816 123.816 0 0 0-175.104 0L168.448 168.448l175.104 175.104 110.844-110.844a123.816 123.816 0 0 0 0-175.104z" style="fill:#bcc5ff"/><path d="M399.058 159.101c56.674-69.848-40.31-166.833-110.16-110.159a124.711 124.711 0 0 0-9.606 8.662L168.448 168.448l111.104 111.104 110.844-110.844a124.711 124.711 0 0 0 8.662-9.607z" style="fill:#d6deff"/><path d="M85.333 341.333a21.333 21.333 0 0 1-15.083-36.416l64-64a21.331 21.331 0 0 1 30.167 30.166l-64 64a21.264 21.264 0 0 1-15.084 6.25z" style="fill:#d5f1dd"/><path d="M256 170.667a21.333 21.333 0 0 1-15.083-36.417l64-64a21.331 21.331 0 0 1 30.166 30.167l-64 64a21.264 21.264 0 0 1-15.083 6.25z" style="fill:#eff2ff"/></svg>